<svg width="28" height="28" viewBox="0 0 28 28" fill="none" xmlns="http://www.w3.org/2000/svg">
<path d="M25.25 0.875H2.74414C1.71289 0.875 0.875 1.72461 0.875 2.76758V25.2324C0.875 26.2754 1.71289 27.125 2.74414 27.125H25.25C26.2812 27.125 27.125 26.2754 27.125 25.2324V2.76758C27.125 1.72461 26.2812 0.875 25.25 0.875ZM8.80859 23.375H4.91797V10.8477H8.81445V23.375H8.80859ZM6.86328 9.13672C5.61523 9.13672 4.60742 8.12305 4.60742 6.88086C4.60742 5.63867 5.61523 4.625 6.86328 4.625C8.10547 4.625 9.11914 5.63867 9.11914 6.88086C9.11914 8.12891 8.11133 9.13672 6.86328 9.13672ZM23.3926 23.375H19.502V17.2812C19.502 15.8281 19.4727 13.959 17.4805 13.959C15.4531 13.959 15.1426 15.541 15.1426 17.1758V23.375H11.252V10.8477H14.9844V12.5586H15.0371C15.5586 11.5742 16.8301 10.5371 18.7227 10.5371C22.6602 10.5371 23.3926 13.1328 23.3926 16.5078V23.375Z" fill="#3A3A3A"/>
</svg>
